<svg width="97" height="21" fill="none" xmlns="http://www.w3.org/2000/svg" title="Charm industrial">
  <g clip-path="url(#charm_svg__a)" fill="#000">
    <path
      d="M12.517.689c-.606.002-.653.009-1.093.16a3.812 3.812 0 0 0-1.369.791l-.292.263-.28-.235c-.787-.66-1.48-.927-2.434-.932-.622-.003-.993.075-1.479.311-1.139.555-1.8 1.52-1.914 2.8l-.03.342-.345.03c-1.039.093-1.776.43-2.428 1.11a3.18 3.18 0 0 0-.748 1.289c-.087.275-.106.432-.105.872.002.746.158 1.254.584 1.895.22.33.747.86 1.059 1.062l.198.129-.151.113c-1.162.875-1.733 1.965-1.654 3.157.079 1.186.751 2.168 1.855 2.706.466.227.843.325 1.48.384l.3.028.031.356c.07.794.38 1.496.906 2.047.486.51 1.02.827 1.627.964l.407.092c.207.05 1.05-.016 1.356-.104.5-.144 1.09-.462 1.504-.812l.374-.316.28.252c.888.795 2.195 1.125 3.303.833a3.401 3.401 0 0 0 2.498-3.016l.03-.392h.298c.31 0 .884-.118 1.23-.251.628-.242 1.355-.85 1.68-1.405.247-.423.397-.927.426-1.434.068-1.166-.465-2.236-1.507-3.026a6.585 6.585 0 0 1-.333-.261c0-.005.112-.085.249-.179.455-.31 1.01-.972 1.24-1.479.414-.912.417-1.892.009-2.73-.555-1.14-1.607-1.83-2.945-1.93l-.394-.03-.03-.37c-.118-1.43-1.024-2.546-2.424-2.982-.288-.09-.428-.104-.97-.102ZM7.08 2.663c.156.001.315.021.473.062.387.1.668.272.953.582.31.337.534.749.679 1.247.19.655.213 1.02.198 3.15l-.012 1.768h.818l.001-1.602c.002-1.972.034-2.53.18-3.112.213-.858.712-1.57 1.3-1.859a1.908 1.908 0 0 1 2.164.315c.477.434.694.924.693 1.559 0 .274-.073.701-.154.911-.026.065.001.064.272-.011.364-.1.996-.11 1.338-.019.749.199 1.308.73 1.487 1.414.092.352.085.633-.023.955-.183.538-.573.94-1.212 1.247-.719.345-1.425.469-2.592.452-.402-.006-1.344-.016-2.093-.022l-1.333-.013H9.014l-1.724.005c-1.145.003-2.218-.01-2.386-.03-1.331-.155-2.27-.675-2.664-1.474-.12-.242-.13-.304-.13-.728 0-.436.008-.481.147-.761.323-.653.95-1.06 1.78-1.157.25-.028.992.072 1.149.156.075.04.075.029-.004-.225-.115-.366-.114-1.035 0-1.401a1.992 1.992 0 0 1 1.899-1.409ZM6 11.37c.422-.002.948.002 1.51.011l.72.012v-.003h1.993v-.003l2.208.02c2.406.02 2.461.025 3.278.31.698.243 1.286.718 1.548 1.25.114.231.126.3.126.719 0 .41-.013.49-.12.716-.221.472-.69.866-1.216 1.025-.311.094-1.03.085-1.402-.018-.244-.067-.296-.07-.276-.02.119.309.166.647.148 1.06-.017.41-.034.481-.18.776a1.85 1.85 0 0 1-.906.88c-.259.12-.354.14-.719.15-.262.008-.487-.01-.597-.046-.563-.185-1.087-.665-1.38-1.262-.415-.85-.462-1.192-.489-3.584l-.02-1.749h-.81l.01 1.825c.011 1.706.002 2.096-.058 2.463-.085.515-.246 1.014-.433 1.345-.17.301-.598.759-.84.9-.409.237-1.029.315-1.497.186-.528-.145-1.045-.594-1.297-1.125-.12-.256-.138-.341-.152-.776-.012-.351.003-.566.055-.766.04-.154.066-.285.058-.293a.9.9 0 0 0-.233.056c-.313.098-1.12.1-1.437.001-.568-.175-1.04-.566-1.287-1.065-.144-.291-.152-.331-.152-.773s.008-.481.15-.76c.41-.806 1.416-1.321 2.81-1.44.146-.012.464-.02.886-.022ZM56.56 17.572c-.274-.17-.352-.407-.352-1.059 0-.532-.008-.573-.114-.6-.081-.021-.108-.065-.095-.156.017-.118.043-.127.373-.127s.357.01.373.127c.014.092-.014.135-.101.157-.115.03-.119.053-.099.592.019.502.035.575.152.7.072.076.19.139.262.139.34 0 .45-.237.451-.966 0-.413-.008-.45-.109-.45-.085 0-.109-.036-.109-.163v-.163h.711v.163c0 .11-.028.164-.082.164-.068 0-.082.1-.082.574 0 .616-.045.767-.295 1-.196.182-.648.217-.885.068ZM49.43 17.454c0-.109.028-.163.083-.163.068 0 .082-.112.082-.68 0-.57-.014-.681-.082-.681-.055 0-.082-.055-.082-.164v-.163h.71v.163c0 .11-.027.164-.082.164-.068 0-.082.112-.082.68 0 .569.014.68.082.68.055 0 .082.055.082.164v.163h-.71v-.163ZM50.96 17.456c0-.11.027-.165.082-.165.069 0 .082-.112.082-.68 0-.57-.013-.681-.082-.681-.055 0-.082-.055-.082-.164 0-.162.002-.163.315-.162h.314l.368.666.368.667v-.504c.002-.411-.013-.503-.08-.503-.055 0-.082-.055-.082-.164v-.163h.71v.163c0 .11-.027.164-.082.164-.069 0-.082.13-.082.843v.844h-.43l-.385-.694-.386-.694v.524c-.001.486.007.527.112.555.082.02.109.065.096.156-.016.116-.048.127-.387.142l-.369.016v-.166ZM53.585 15.603v.163c0 .11.027.164.082.164.069 0 .082.112.082.68 0 .569-.013.68-.082.68-.055 0-.082.055-.082.164v.163h.489c.268 0 .557-.026.642-.058.508-.192.757-.862.515-1.384-.208-.449-.457-.572-1.157-.572h-.489Zm.547.327h.187c.237 0 .493.207.58.471a.703.703 0 0 1-.226.75.558.558 0 0 1-.354.14h-.187V15.93ZM58.915 17.565c-.173-.07-.41-.37-.41-.519 0-.12.024-.137.194-.137.167 0 .203.024.252.164.103.294.593.273.593-.025 0-.151-.148-.25-.53-.352-.458-.123-.606-.596-.295-.943.15-.166.183-.177.517-.177.333 0 .37.012.553.19.253.244.243.402-.026.424-.154.013-.203-.008-.246-.104-.083-.182-.215-.243-.393-.18-.168.058-.226.204-.127.322.035.042.223.13.419.194.274.091.38.157.46.29.128.207.131.317.019.552-.14.293-.632.444-.98.301ZM61.055 17.581c-.078-.077-.032-.247.073-.274.101-.027.109-.075.109-.703v-.674h-.164c-.13 0-.164.024-.164.112 0 .094-.03.11-.178.095-.171-.016-.177-.025-.177-.261v-.245l.888-.015.888-.015v.273c0 .268-.003.274-.164.274-.127 0-.164-.024-.164-.11 0-.087-.036-.108-.191-.108h-.191v.68c0 .569.013.68.082.68.054 0 .081.055.081.164v.163h-.346c-.19 0-.362-.016-.382-.036ZM63.041 15.593v.168c0 .114.027.169.082.169.069 0 .082.111.082.68 0 .569-.013.68-.082.68-.054 0-.082.055-.082.164v.163h.711v-.163c0-.11-.028-.163-.082-.163-.062 0-.082-.067-.082-.273 0-.246.012-.272.123-.271.228.002.312.117.422.584l.067.286h.24c.23 0 .241-.008.241-.157 0-.111-.032-.165-.11-.185-.06-.016-.11-.074-.11-.13a1.42 1.42 0 0 0-.08-.316c-.072-.2-.07-.225.03-.33.156-.166.143-.52-.026-.716-.127-.148-.151-.153-.738-.171l-.606-.019Zm.547.337h.208c.233 0 .339.076.339.244a.29.29 0 0 1-.066.18c-.036.036-.16.066-.273.066h-.208v-.49ZM65.446 17.454c0-.109.028-.163.082-.163.069 0 .082-.112.082-.68 0-.57-.013-.681-.082-.681-.054 0-.082-.055-.082-.164v-.163h.711v.163c0 .11-.027.164-.082.164-.069 0-.082.112-.082.68 0 .569.014.68.082.68.055 0 .082.055.082.164v.163h-.711v-.163ZM67.59 15.597l-.107.289c-.059.159-.19.53-.292.827-.125.363-.217.547-.282.564-.063.017-.095.08-.095.183 0 .157 0 .157.355.157h.356v-.159c0-.087-.027-.167-.06-.178-.035-.012-.043-.078-.02-.168.035-.14.054-.148.353-.148.303 0 .32.007.374.163.035.1.037.164.006.164-.029 0-.052.073-.052.163v.163h.71v-.163c0-.12-.025-.163-.095-.164-.074 0-.165-.19-.397-.83l-.3-.83-.227-.016-.228-.017Zm.208.55c.033 0 .164.364.164.456 0 .019-.074.034-.164.034-.09 0-.164-.015-.164-.034 0-.092.13-.456.164-.456ZM69.49 17.454c0-.109.028-.163.083-.163.068 0 .082-.112.082-.68 0-.57-.014-.681-.082-.681-.055 0-.082-.055-.082-.164v-.163h.71v.163c0 .11-.027.164-.081.164-.069 0-.083.112-.083.683v.683l.315-.016c.298-.016.315-.025.331-.166.015-.126.044-.15.178-.15.16 0 .16.002.16.327v.326h-1.53v-.163ZM30.468 17.448c-.878-.102-2.003-.479-2.737-.919-1.597-.955-2.665-2.497-3.046-4.398-.144-.722-.13-2.15.028-2.88.307-1.416.92-2.627 1.8-3.558 1.352-1.432 3.177-2.135 5.316-2.048a6.905 6.905 0 0 1 2.767.66l.4.184-.012-.363-.012-.363h1.585l.015 2.247.014 2.248-.696-.016-.696-.015-.126-.49c-.282-1.097-.91-1.97-1.66-2.307-.996-.447-2.195-.436-3.155.028-.462.223-1.042.738-1.41 1.252-.633.883-1.004 2.249-1.004 3.695 0 2.635 1.088 4.649 2.824 5.23 1.714.575 3.993-.119 5.442-1.656.203-.214.405-.39.45-.39.113 0 .959.754.959.855 0 .116-.645.864-1.058 1.228a6.34 6.34 0 0 1-2.155 1.288c-1.263.463-2.586.632-3.833.488ZM38.29 17.032l.017-.15h10.276l.018.15.017.15H38.272l.017-.15ZM72.127 17.032l.018-.15h8.144l.018.15.017.15H72.11l.017-.15ZM87.763 16.718c-.014-.022-.606-1.53-1.316-3.349-1.313-3.36-1.585-4.124-1.933-5.4l-.195-.715-.004 3.58c-.002 1.969-.018 3.726-.036 3.905l-.034.326H85.558l-.015.754-.014.755h-4.04V15.25l.338-.042c.543-.069.73-.268.823-.88.028-.192.077-2.136.107-4.32.03-2.185.07-4.183.087-4.442l.033-.47-.642.02-.642.02-.014-.754-.014-.755h3.966l.899 2.423c1.81 4.88 2.04 5.512 2.355 6.462l.32.97.252-.758c.254-.764 3.034-8.606 3.164-8.925l.07-.172h4.096v1.3l-.362.059c-.414.066-.585.162-.701.393-.182.359-.184.672-.03 4.848.081 2.239.134 4.242.116 4.452l-.033.383.647.014.648.015.015.636c.009.349.002.689-.014.755l-.03.12-2.445-.015-2.445-.013-.015-.65c-.016-.728-.047-.674.427-.728.252-.03.337-.066.474-.206.329-.336.342-.615.202-4.085-.044-1.076-.094-2.368-.113-2.872-.018-.503-.05-.925-.068-.938-.02-.012-.72 1.901-1.554 4.252-.835 2.35-1.611 4.53-1.724 4.843l-.204.57h-.845c-.466 0-.856-.02-.87-.042ZM38.3 16.287a.38.38 0 0 1-.011-.177c.018-.094.244-.099 5.156-.099h5.138v.327l-5.127.014c-4.43.012-5.13.003-5.156-.065ZM72.138 16.287a.38.38 0 0 1-.012-.177c.019-.094.206-.099 4.09-.099h4.073v.327l-4.06.014c-3.504.012-4.065.003-4.091-.065ZM38.565 13.848l.016-.558.405-.044c.531-.058.697-.149.843-.464.114-.246.119-.328.132-2.514.008-1.242.02-2.939.028-3.77l.013-1.51h-1.448V3.736h5.848v1.069l-.444.059c-.506.066-.679.165-.84.481-.1.195-.111.343-.127 1.616l-.018 1.402H48.33l.018-1.674c.01-.92.016-1.68.013-1.687a9.82 9.82 0 0 0-.724-.014h-.72V3.736h5.849V4.81l-.434.055c-.53.067-.722.189-.86.544-.093.239-.102.545-.128 3.987a421.46 421.46 0 0 0-.019 3.747c.005.01.325.01.711 0l.703-.018.015.64.015.64-2.912-.014-2.913-.014V13.29l.41-.045c.486-.052.7-.16.847-.433.1-.184.111-.323.127-1.672l.017-1.47H42.99l-.019 1.728a84.13 84.13 0 0 0-.01 1.746c.005.01.325.01.712 0l.702-.018v1.252l-2.913.014-2.912.014.015-.558ZM59.538 3.463l-.156.34c-.698 1.524-4.09 8.46-4.252 8.693-.246.355-.636.634-.955.683-.452.07-.425.028-.425.658v.568h4.376l-.015-.666-.015-.667-.648.017c-.402.01-.64-.003-.629-.036.01-.029.204-.434.43-.9l.41-.846 1.093-.003a78.826 78.826 0 0 0 2.118-.038l1.024-.035.269.567c.309.652.373.91.282 1.13-.075.178-.365.334-.623.334-.098 0-.208.03-.244.065-.074.074-.09.9-.02 1.01.034.055.62.066 2.746.055l2.702-.014v-1.252h-1.13l-.124-.381c-.185-.567-.242-.682-2.256-4.573a937.49 937.49 0 0 1-2.142-4.15l-.28-.559h-1.536Zm.21 2.687c.06-.006.115.106.18.335.167.58.438 1.228 1.025 2.441.458.949.559 1.2.498 1.238-.041.026-.808.048-1.703.049-1.413 0-1.633-.01-1.66-.083-.018-.046.19-.567.469-1.173.521-1.132.777-1.76.993-2.433.078-.244.14-.368.198-.374ZM71.141 3.694c-1.182-.002-2.186.008-2.468.026l-.683.043V4.96l.71.015.711.015-.014 3.632c-.008 1.998-.027 3.73-.043 3.852-.036.282-.197.542-.398.646-.088.045-.329.1-.535.12-.207.02-.395.064-.417.097-.05.075-.055.982-.005 1.031.02.02 1.386.036 3.035.036h3l-.016-.64-.016-.639-.82.015-.82.016.037-.478c.02-.263.038-.9.041-1.417l.005-.94h.96l.306.314c.168.172.742.852 1.276 1.51 1.038 1.28 1.555 1.845 1.923 2.101l.23.16 1.684-.014 1.683-.015v-1.082l-.355-.06c-.686-.116-.95-.324-2.227-1.76-.802-.9-1.165-1.233-1.566-1.437l-.22-.112.516-.152c.842-.248 1.486-.602 1.973-1.083.757-.748.996-1.49.789-2.462-.117-.55-.331-.932-.726-1.3-.474-.441-.988-.693-1.9-.929-1.009-.26-1.263-.278-4.428-.302-.414-.003-.828-.004-1.222-.005Zm2.588 1.058c1.336 0 2.358.492 2.622 1.261.202.593.155 1.454-.111 2.004-.26.536-.83.923-1.59 1.08-.451.092-1.434.137-1.96.09l-.382-.035v-1.85c0-1.802.003-1.857.12-2.075.188-.349.533-.475 1.301-.475Z">
    </path>
  </g>
  <defs>
    <clipPath id="charm_svg__a">
      <path fill="#fff" d="M0 0h97v21H0z"></path>
    </clipPath>
  </defs>
</svg>